PathFileType	4	(X/Y/Z)	3_coords_data.trc
DataRate	CameraRate	NumFrames	NumMarkers	Units	OrigDataRate	OrigDataStartFrame	OrigNumFrames
30.0	30.0	8	21	m	30.0	10	49
Frame#	Time	THUMB_TIP	THUMB_IP	THUMB_MCP	THUMB_CMC	INDEX_TIP	INDEX_DIP	INDEX_PIP	INDEX_MCP	MIDDLE_TIP	MIDDLE_DIP	MIDDLE_PIP	MIDDLE_MCP	RING_TIP	RING_DIP	RING_PIP	RING_MCP	PINKY_TIP	PINKY_DIP	PINKY_PIP	PINKY_MCP	WRIST
X1	Y1	Z1	X2	Y2	Z2	X3	Y3	Z3	X4	Y4	Z4	X5	Y5	Z5	X6	Y6	Z6	X7	Y7	Z7	X8	Y8	Z8	X9	Y9	Z9	X10	Y10	Z10	X11	Y11	Z11	X12	Y12	Z12	X13	Y13	Z13	X14	Y14	Z14	X15	Y15	Z15	X16	Y16	Z16	X17	Y17	Z17	X18	Y18	Z18	X19	Y19	Z19	X20	Y20	Z20	X21	Y21	Z21
9	0.3	-0.06969930267333985	-0.1362220001220703	0.9863460083007812	-0.07415609741210938	-0.11496800231933593	1.0052000122070313	-0.08405259704589843	-0.09765339660644531	1.030780029296875	-0.09001069641113281	-0.06641280364990235	1.05206005859375	-0.056460498809814456	-0.08932839965820312	0.912822998046875	-0.06348920059204101	-0.0860779037475586	0.9354559936523438	-0.0713865966796875	-0.08220999908447266	0.9584030151367188	-0.08300489807128907	-0.07469110107421875	0.9943250122070313	-0.05819169998168945	-0.058728401184082034	0.9017260131835938	-0.06527010345458985	-0.05717890167236328	0.9261619873046875	-0.0746166000366211	-0.05523899841308594	0.95472900390625	-0.0854551010131836	-0.05272909927368164	0.99022900390625	-0.053577400207519534	-0.014639599800109863	0.9196820068359375	-0.06395019912719727	-0.018826700210571288	0.940593994140625	-0.07586620330810546	-0.02414780044555664	0.9640430297851562	-0.08863079833984375	-0.03303799819946289	0.9978610229492187	-0.05403329849243164	0.01537399959564209	0.9552379760742188	-0.06476329803466797	0.007163440227508545	0.9699730224609375	-0.07466619873046874	-0.0013348900079727171	0.983947998046875	-0.08468699645996093	-0.015682100296020508	1.0063900146484375	-0.11471299743652344	-0.04087770080566406	1.0706199951171875
10	0.3333333333333333	-0.06984639739990234	-0.13606900024414062	0.9860609741210937	-0.07434660339355469	-0.11487200164794922	1.0049299926757813	-0.0841529998779297	-0.09762789916992187	1.0305	-0.09014360046386719	-0.06638739776611328	1.05177001953125	-0.05654750061035156	-0.08908580017089844	0.91260498046875	-0.06365179824829102	-0.08588189697265625	0.9351890258789063	-0.07154969787597656	-0.0820615997314453	0.9581939697265625	-0.08319940185546874	-0.07467960357666016	0.9941010131835938	-0.05810120010375976	-0.058483898162841795	0.9015830078125	-0.06530130004882813	-0.057026100158691403	0.9259340209960938	-0.07470809936523437	-0.05511169815063476	0.9544600219726562	-0.08560569763183594	-0.05267430114746094	0.9901519775390625	-0.053380699157714845	-0.014651599884033204	0.9196599731445313	-0.06391109848022461	-0.01879759979248047	0.9403809814453125	-0.07597000122070313	-0.02408970069885254	0.9637379760742187	-0.08875319671630859	-0.03299729919433594	0.9977030029296875	-0.05413949966430664	0.015409099578857421	0.9550460205078125	-0.06490229797363281	0.007217740058898926	0.9697650146484375	-0.07482579803466796	-0.001241700053215026	0.9837130126953125	-0.0848386993408203	-0.015579799652099609	1.0062000122070311	-0.11481400299072266	-0.04092200088500977	1.0703399658203125
11	0.36666666666666664	-0.0698781967163086	-0.13587300109863282	0.9858489990234375	-0.07440460205078125	-0.11477100372314453	1.0046900024414063	-0.08434159851074219	-0.09758300018310546	1.030300048828125	-0.09026609802246094	-0.06634320068359376	1.0515899658203125	-0.05670220184326172	-0.08894550323486328	0.9123790283203125	-0.0638219985961914	-0.08576429748535157	0.9349769897460938	-0.07175869750976563	-0.08197350311279297	0.957947998046875	-0.08343119812011719	-0.07457540130615234	0.9938419799804687	-0.05825329971313477	-0.058453098297119144	0.9013699951171875	-0.06549720001220703	-0.056968399047851566	0.9257100219726563	-0.07495179748535157	-0.05506330108642578	0.9542839965820312	-0.08581289672851562	-0.052539600372314456	0.9898170166015625	-0.05349739837646485	-0.014730899810791016	0.9194810180664063	-0.06409449768066407	-0.018866199493408203	0.940198974609375	-0.0762166976928711	-0.024116100311279295	0.9635289916992188	-0.08905580139160156	-0.03281539916992188	0.9974110107421875	-0.05453300094604492	0.015425399780273437	0.9547470092773438	-0.06524800109863281	0.0072182297706604006	0.9694810180664063	-0.07513379669189453	-0.001249680042266845	0.9834639892578125	-0.08503970336914063	-0.015546799659729004	1.0060599975585938	-0.11511900329589844	-0.040780399322509764	1.07018994140625
12	0.4	-0.07014099884033204	-0.13579800415039062	0.9853610229492188	-0.07467600250244141	-0.11473500061035156	1.004280029296875	-0.08460980224609375	-0.09756210327148437	1.02993994140625	-0.09054460144042968	-0.06631719970703125	1.0513199462890626	-0.056909500122070314	-0.0888114013671875	0.912072021484375	-0.06402790069580078	-0.08567410278320313	0.9346290283203125	-0.0719708023071289	-0.08191649627685547	0.9575590209960938	-0.08368129730224609	-0.0745791015625	0.9935599975585937	-0.05840639877319336	-0.05829410171508789	0.9011339721679688	-0.06572979736328124	-0.05684080123901367	0.9254849853515625	-0.07521549987792969	-0.05498310089111328	0.9540349731445312	-0.08618070220947266	-0.052560699462890624	0.9895800170898438	-0.05355550003051758	-0.01469499969482422	0.9193060302734375	-0.0642938995361328	-0.018839199066162108	0.9399539794921875	-0.07651010131835938	-0.0240447998046875	0.9632479858398437	-0.08937220001220703	-0.032794998168945315	0.9971539916992187	-0.05474489974975586	0.015392999649047851	0.95447802734375	-0.06551190185546875	0.007262149810791016	0.9691920166015625	-0.07543630218505859	-0.00118132996559143	0.9832000122070312	-0.08540709686279296	-0.01546500015258789	1.0057999877929686	-0.11520600128173829	-0.04084180068969727	1.0699000244140624
13	0.43333333333333335	-0.07058119964599609	-0.1357259979248047	0.9848930053710937	-0.07506210327148438	-0.11465200042724609	1.0039099731445313	-0.08495359802246094	-0.0975166015625	1.02956005859375	-0.09084580230712891	-0.06634619903564454	1.0508399658203125	-0.05719350051879883	-0.08870809936523437	0.9117230224609375	-0.06439430236816407	-0.08559300231933593	0.93427197265625	-0.07236470031738282	-0.08187129974365234	0.9572449951171875	-0.08414469909667968	-0.07453690338134765	0.9932739868164062	-0.05856000137329102	-0.05815250015258789	0.900801025390625	-0.06598030090332031	-0.05676639938354492	0.92510302734375	-0.07555609893798829	-0.054933498382568356	0.9536329956054688	-0.08653939819335937	-0.05243069839477539	0.9894359741210937	-0.05370199966430664	-0.014712699890136719	0.9189910278320312	-0.06447769927978515	-0.01881369972229004	0.9396519775390625	-0.07680670166015625	-0.024051000595092773	0.9629310302734375	-0.08976200103759766	-0.03274800109863281	0.996760009765625	-0.05503799819946289	0.015382499694824218	0.9541439819335937	-0.06579100036621094	0.007220019817352295	0.9688889770507813	-0.07571240234375	-0.0012452199459075922	0.9828790283203125	-0.08567420196533203	-0.01550290012359619	1.0054299926757813	-0.1157040023803711	-0.04068109893798828	1.0695899658203125
14	0.4666666666666667	-0.07088790130615234	-0.13560299682617188	0.9845419921875	-0.07533059692382812	-0.11463500213623047	1.00352001953125	-0.0852343978881836	-0.09741419982910156	1.02925	-0.09111070251464844	-0.06622669982910157	1.050530029296875	-0.057624000549316406	-0.08868939971923828	0.911302978515625	-0.06482649993896485	-0.08554090118408203	0.9338560180664063	-0.07280919647216796	-0.08182279968261719	0.9568400268554688	-0.08447059631347656	-0.07454360198974609	0.9929140014648438	-0.05893069839477539	-0.058102298736572265	0.900447021484375	-0.066431396484375	-0.05670880126953125	0.9247310180664062	-0.07599729919433594	-0.0549093017578125	0.9533109741210938	-0.08691310119628906	-0.052537399291992186	0.9888519897460938	-0.05407820129394531	-0.014755599975585938	0.91864599609375	-0.06487220001220703	-0.01883049964904785	0.9392860107421875	-0.07732599639892578	-0.024072900772094726	0.9626290283203125	-0.09005590057373047	-0.0328120002746582	0.996489990234375	-0.055435199737548825	0.015343400001525878	0.953698974609375	-0.06623789978027343	0.007223859786987304	0.9684979858398437	-0.0761488037109375	-0.001220620036125183	0.9824769897460938	-0.08604840087890625	-0.015460399627685547	1.0049500122070312	-0.115625	-0.04081919860839844	1.0691500244140626
15	0.5	-0.07117410278320313	-0.13547300720214844	0.9840770263671875	-0.07565039825439453	-0.11446600341796875	1.0031699829101564	-0.08550289916992188	-0.0973510971069336	1.029	-0.09117179870605469	-0.06623729705810547	1.050239990234375	-0.0579723014831543	-0.08850080108642579	0.91102197265625	-0.06514679718017578	-0.085402099609375	0.9335549926757812	-0.07313520050048829	-0.08170659637451172	0.9565170288085938	-0.08475260162353515	-0.0744468994140625	0.9924869995117187	-0.059128200531005856	-0.05792340087890625	0.9002030029296875	-0.06662270355224609	-0.05657469940185547	0.9244749755859375	-0.07624459838867187	-0.05474909973144531	0.9530180053710937	-0.08715779876708984	-0.05242070007324219	0.9885040283203125	-0.05421849822998047	-0.01466059970855713	0.918469970703125	-0.06509420013427734	-0.018722400665283204	0.9390759887695312	-0.0775521011352539	-0.02395289993286133	0.96235302734375	-0.09048860168457032	-0.03264920043945312	0.9961900024414062	-0.05561640167236328	0.015415200233459473	0.95339501953125	-0.06646759796142578	0.007299290180206299	0.968218017578125	-0.0763772964477539	-0.001125970005989074	0.9822119750976562	-0.0863207015991211	-0.015358799934387208	1.004780029296875	-0.1157509994506836	-0.04085020065307617	1.068760009765625
16	0.5333333333333333	-0.07129190063476562	-0.13528199768066407	0.9837670288085938	-0.07573359680175781	-0.11425900268554688	1.0029400024414064	-0.08558090209960938	-0.0971875	1.028699951171875	-0.09134929656982421	-0.06597750091552734	1.05	-0.05806240081787109	-0.0882833023071289	0.910791015625	-0.06521160125732423	-0.08521730041503907	0.9333040161132813	-0.07324089813232422	-0.08156790161132813	0.956280029296875	-0.08482230377197265	-0.07430670166015625	0.9922780151367188	-0.059086700439453126	-0.05765190124511719	0.9000599975585938	-0.06665080261230469	-0.05635060119628906	0.9243259887695312	-0.0762843017578125	-0.05457300186157227	0.9528150024414063	-0.08723650360107423	-0.05225870132446289	0.9883419799804688	-0.05425910186767578	-0.014431300163269043	0.918343017578125	-0.06509919738769532	-0.018510000228881836	0.9389249877929687	-0.07750959777832031	-0.023689599990844728	0.9620490112304687	-0.09051439666748047	-0.03248030090332031	0.9959559936523438	-0.05566279983520508	0.015545900344848634	0.953239990234375	-0.06653639984130859	0.007446829795837402	0.9680269775390625	-0.07648259735107422	-0.001016370058059692	0.982052978515625	-0.08634519958496094	-0.015158900260925293	1.004489990234375	-0.11591899871826172	-0.04068119812011719	1.0686600341796875
